<svg width="119" height="119" viewBox="0 0 119 119" fill="none" xmlns="http://www.w3.org/2000/svg">
<mask id="path-1-inside-1_124_12" fill="white">
<path d="M45.901 34.0112C45.1755 33.2857 45.1755 32.1094 45.901 31.3839L48.5284 28.7566C49.2539 28.031 50.4302 28.031 51.1557 28.7566C51.8812 29.4821 51.8812 30.6584 51.1557 31.3839L48.5284 34.0112C47.8028 34.7368 46.6265 34.7368 45.901 34.0112Z"/>
<path d="M36.2404 39.9826C35.5149 40.7081 35.5149 41.8844 36.2404 42.61C36.9659 43.3355 38.1422 43.3355 38.8677 42.61L41.4951 39.9826C42.2206 39.2571 42.2206 38.0808 41.4951 37.3553C40.7696 36.6298 39.5933 36.6298 38.8677 37.3553L36.2404 39.9826Z"/>
<path d="M47.3872 43.6982C46.6617 44.4238 46.6617 45.6001 47.3872 46.3256C48.1128 47.0511 49.2891 47.0511 50.0146 46.3256L52.6419 43.6982C53.3674 42.9727 53.3674 41.7964 52.6419 41.0709C51.9164 40.3454 50.7401 40.3454 50.0146 41.0709L47.3872 43.6982Z"/>
<path d="M58.5341 32.5514C57.8086 33.2769 57.8086 34.4532 58.5341 35.1787C59.2596 35.9042 60.4359 35.9042 61.1614 35.1787L63.7888 32.5514C64.5143 31.8259 64.5143 30.6496 63.7888 29.924C63.0633 29.1985 61.887 29.1985 61.1614 29.924L58.5341 32.5514Z"/>
<path d="M69.681 38.8943C68.9554 38.1688 68.9554 36.9925 69.681 36.267L72.3083 33.6397C73.0338 32.9141 74.2101 32.9141 74.9356 33.6397C75.6612 34.3652 75.6612 35.5415 74.9356 36.267L72.3083 38.8943C71.5828 39.6199 70.4065 39.6199 69.681 38.8943Z"/>
<path d="M77.1122 43.6982C76.3867 44.4238 76.3867 45.6001 77.1122 46.3256C77.8377 47.0511 79.014 47.0511 79.7395 46.3256L82.3669 43.6982C83.0924 42.9727 83.0924 41.7964 82.3669 41.0709C81.6414 40.3454 80.4651 40.3454 79.7395 41.0709L77.1122 43.6982Z"/>
<path d="M60.7635 47.4403C60.038 46.7148 60.038 45.5385 60.7635 44.8129L63.3908 42.1856C64.1164 41.4601 65.2927 41.4601 66.0182 42.1856C66.7437 42.9111 66.7437 44.0874 66.0182 44.8129L63.3908 47.4403C62.6653 48.1658 61.489 48.1658 60.7635 47.4403Z"/>
<path fill-rule="evenodd" clip-rule="evenodd" d="M24.9406 54.1704C20.8373 54.0853 17.4895 50.6294 18.6727 46.6995C19.2297 44.8496 19.9834 43.0387 20.9282 41.2872C23.0932 37.2741 26.2196 33.6517 30.1288 30.6269C34.0381 27.6021 38.6537 25.2341 43.7121 23.6581C48.7704 22.0822 54.1726 21.3291 59.61 21.4419C65.0474 21.5548 70.4137 22.5313 75.4023 24.3157C80.391 26.1001 84.9044 28.6575 88.6848 31.8418C92.4652 35.0262 95.4386 38.7751 97.4353 42.8746C97.7524 43.5256 98.0438 44.1834 98.3094 44.8469C100.597 50.5624 95.3321 55.6309 89.1772 55.5032L24.9406 54.1704ZM22.2306 47.7707C22.7136 46.1664 23.3698 44.5872 24.1984 43.0514C26.0968 39.5323 28.869 36.2997 32.4026 33.5655C35.9373 30.8306 40.151 28.6594 44.8173 27.2056C49.483 25.752 54.4853 25.052 59.5329 25.1568C64.5805 25.2615 69.5495 26.1683 74.1509 27.8142C78.7529 29.4603 82.8729 31.8044 86.2911 34.6836C89.7083 37.562 92.344 40.9068 94.0948 44.5016C94.3729 45.0725 94.6279 45.6482 94.8598 46.2276C95.4166 47.6187 95.1118 48.8271 94.1687 49.8571C93.1371 50.9839 91.3329 51.8315 89.2542 51.7884L25.0177 50.4556C23.9656 50.4337 23.1012 49.9761 22.6136 49.4221C22.1761 48.925 22.0441 48.3901 22.2306 47.7707Z"/>
<path d="M24.1515 91.0328C20.0473 91.0328 16.7202 94.3598 16.7202 98.464C16.7202 102.568 20.0473 105.895 24.1515 105.895H78.0279C79.054 105.895 79.8857 105.063 79.8857 104.037C79.8857 103.011 79.054 102.18 78.0279 102.18H24.1515C22.0994 102.18 20.4358 100.516 20.4358 98.464C20.4358 96.4119 22.0994 94.7484 24.1515 94.7484H94.7482C96.8003 94.7484 98.4638 96.4119 98.4638 98.464C98.4638 100.516 96.8003 102.18 94.7482 102.18H87.317C86.2909 102.18 85.4592 103.011 85.4592 104.037C85.4592 105.063 86.2909 105.895 87.317 105.895H94.7482C98.8524 105.895 102.179 102.568 102.179 98.464C102.179 94.3598 98.8524 91.0328 94.7482 91.0328H24.1515Z"/>
<path d="M19.8277 59.9332C20.97 60.9716 21.9067 61.3078 22.6652 61.3078C23.4237 61.3078 24.3605 60.9716 25.5027 59.9332C27.0852 58.4945 28.8733 57.5922 30.8396 57.5922C32.8059 57.5922 34.5939 58.4945 36.1765 59.9332C37.3187 60.9716 38.2555 61.3078 39.0139 61.3078C39.7724 61.3078 40.7092 60.9716 41.8514 59.9332C43.434 58.4945 45.222 57.5922 47.1883 57.5922C49.1546 57.5922 50.9426 58.4945 52.5252 59.9332C53.6674 60.9716 54.6042 61.3078 55.3627 61.3078C56.1211 61.3078 57.0579 60.9716 58.2001 59.9332C59.7827 58.4945 61.5707 57.5922 63.537 57.5922C65.5033 57.5922 67.2914 58.4945 68.8739 59.9332C70.0161 60.9716 70.9529 61.3078 71.7114 61.3078C72.4698 61.3078 73.4066 60.9716 74.5489 59.9332C76.1314 58.4945 77.9194 57.5922 79.8857 57.5922C81.8521 57.5922 83.6401 58.4945 85.2226 59.9332C86.3649 60.9716 87.3016 61.3078 88.0601 61.3078C88.8186 61.3078 89.7553 60.9716 90.8976 59.9332C92.4801 58.4945 94.2681 57.5922 96.2345 57.5922C98.2008 57.5922 99.9888 58.4945 101.571 59.9332C102.331 60.6233 102.386 61.7983 101.696 62.5575C101.006 63.3167 99.8312 63.3727 99.0719 62.6825C97.9297 61.6441 96.9929 61.3078 96.2345 61.3078C95.476 61.3078 94.5392 61.6441 93.397 62.6825C91.8144 64.1212 90.0264 65.0234 88.0601 65.0234C86.0938 65.0234 84.3058 64.1212 82.7232 62.6825C81.581 61.6441 80.6442 61.3078 79.8857 61.3078C79.1273 61.3078 78.1905 61.6441 77.0483 62.6825C75.4657 64.1212 73.6777 65.0234 71.7114 65.0234C69.7451 65.0234 67.957 64.1212 66.3745 62.6825C65.2323 61.6441 64.2955 61.3078 63.537 61.3078C62.7786 61.3078 61.8418 61.6441 60.6995 62.6825C59.117 64.1212 57.329 65.0234 55.3627 65.0234C53.3963 65.0234 51.6083 64.1212 50.0258 62.6825C48.8835 61.6441 47.9468 61.3078 47.1883 61.3078C46.4298 61.3078 45.4931 61.6441 44.3508 62.6825C42.7683 64.1212 40.9803 65.0234 39.0139 65.0234C37.0476 65.0234 35.2596 64.1212 33.6771 62.6825C32.5348 61.6441 31.598 61.3078 30.8396 61.3078C30.0811 61.3078 29.1443 61.6441 28.0021 62.6825C26.4196 64.1212 24.6315 65.0234 22.6652 65.0234C20.6989 65.0234 18.9109 64.1212 17.3283 62.6825C16.5691 61.9923 16.5132 60.8173 17.2034 60.0581C17.8936 59.2989 19.0685 59.243 19.8277 59.9332Z"/>
<path d="M24.1515 74.3125C24.1515 73.2865 24.9832 72.4547 26.0093 72.4547H96.606C97.6321 72.4547 98.4638 71.6229 98.4638 70.5969C98.4638 69.5708 97.6321 68.7391 96.606 68.7391H26.0093C22.9312 68.7391 20.4358 71.2344 20.4358 74.3125C20.4358 77.3906 22.9312 79.8859 26.0093 79.8859H92.8904C93.9164 79.8859 94.7482 80.7177 94.7482 81.7437C94.7482 82.7698 93.9164 83.6015 92.8904 83.6015H22.2937C21.2676 83.6015 20.4358 84.4333 20.4358 85.4593C20.4358 86.4854 21.2676 87.3172 22.2937 87.3172H92.8904C95.9685 87.3172 98.4638 84.8218 98.4638 81.7437C98.4638 78.6656 95.9685 76.1703 92.8904 76.1703H26.0093C24.9832 76.1703 24.1515 75.3385 24.1515 74.3125Z"/>
</mask>
<path d="M45.901 34.0112C45.1755 33.2857 45.1755 32.1094 45.901 31.3839L48.5284 28.7566C49.2539 28.031 50.4302 28.031 51.1557 28.7566C51.8812 29.4821 51.8812 30.6584 51.1557 31.3839L48.5284 34.0112C47.8028 34.7368 46.6265 34.7368 45.901 34.0112Z" fill="#404040"/>
<path d="M36.2404 39.9826C35.5149 40.7081 35.5149 41.8844 36.2404 42.61C36.9659 43.3355 38.1422 43.3355 38.8677 42.61L41.4951 39.9826C42.2206 39.2571 42.2206 38.0808 41.4951 37.3553C40.7696 36.6298 39.5933 36.6298 38.8677 37.3553L36.2404 39.9826Z" fill="#404040"/>
<path d="M47.3872 43.6982C46.6617 44.4238 46.6617 45.6001 47.3872 46.3256C48.1128 47.0511 49.2891 47.0511 50.0146 46.3256L52.6419 43.6982C53.3674 42.9727 53.3674 41.7964 52.6419 41.0709C51.9164 40.3454 50.7401 40.3454 50.0146 41.0709L47.3872 43.6982Z" fill="#404040"/>
<path d="M58.5341 32.5514C57.8086 33.2769 57.8086 34.4532 58.5341 35.1787C59.2596 35.9042 60.4359 35.9042 61.1614 35.1787L63.7888 32.5514C64.5143 31.8259 64.5143 30.6496 63.7888 29.924C63.0633 29.1985 61.887 29.1985 61.1614 29.924L58.5341 32.5514Z" fill="#404040"/>
<path d="M69.681 38.8943C68.9554 38.1688 68.9554 36.9925 69.681 36.267L72.3083 33.6397C73.0338 32.9141 74.2101 32.9141 74.9356 33.6397C75.6612 34.3652 75.6612 35.5415 74.9356 36.267L72.3083 38.8943C71.5828 39.6199 70.4065 39.6199 69.681 38.8943Z" fill="#404040"/>
<path d="M77.1122 43.6982C76.3867 44.4238 76.3867 45.6001 77.1122 46.3256C77.8377 47.0511 79.014 47.0511 79.7395 46.3256L82.3669 43.6982C83.0924 42.9727 83.0924 41.7964 82.3669 41.0709C81.6414 40.3454 80.4651 40.3454 79.7395 41.0709L77.1122 43.6982Z" fill="#404040"/>
<path d="M60.7635 47.4403C60.038 46.7148 60.038 45.5385 60.7635 44.8129L63.3908 42.1856C64.1164 41.4601 65.2927 41.4601 66.0182 42.1856C66.7437 42.9111 66.7437 44.0874 66.0182 44.8129L63.3908 47.4403C62.6653 48.1658 61.489 48.1658 60.7635 47.4403Z" fill="#404040"/>
<path fill-rule="evenodd" clip-rule="evenodd" d="M24.9406 54.1704C20.8373 54.0853 17.4895 50.6294 18.6727 46.6995C19.2297 44.8496 19.9834 43.0387 20.9282 41.2872C23.0932 37.2741 26.2196 33.6517 30.1288 30.6269C34.0381 27.6021 38.6537 25.2341 43.7121 23.6581C48.7704 22.0822 54.1726 21.3291 59.61 21.4419C65.0474 21.5548 70.4137 22.5313 75.4023 24.3157C80.391 26.1001 84.9044 28.6575 88.6848 31.8418C92.4652 35.0262 95.4386 38.7751 97.4353 42.8746C97.7524 43.5256 98.0438 44.1834 98.3094 44.8469C100.597 50.5624 95.3321 55.6309 89.1772 55.5032L24.9406 54.1704ZM22.2306 47.7707C22.7136 46.1664 23.3698 44.5872 24.1984 43.0514C26.0968 39.5323 28.869 36.2997 32.4026 33.5655C35.9373 30.8306 40.151 28.6594 44.8173 27.2056C49.483 25.752 54.4853 25.052 59.5329 25.1568C64.5805 25.2615 69.5495 26.1683 74.1509 27.8142C78.7529 29.4603 82.8729 31.8044 86.2911 34.6836C89.7083 37.562 92.344 40.9068 94.0948 44.5016C94.3729 45.0725 94.6279 45.6482 94.8598 46.2276C95.4166 47.6187 95.1118 48.8271 94.1687 49.8571C93.1371 50.9839 91.3329 51.8315 89.2542 51.7884L25.0177 50.4556C23.9656 50.4337 23.1012 49.9761 22.6136 49.4221C22.1761 48.925 22.0441 48.3901 22.2306 47.7707Z" fill="#404040"/>
<path d="M24.1515 91.0328C20.0473 91.0328 16.7202 94.3598 16.7202 98.464C16.7202 102.568 20.0473 105.895 24.1515 105.895H78.0279C79.054 105.895 79.8857 105.063 79.8857 104.037C79.8857 103.011 79.054 102.18 78.0279 102.18H24.1515C22.0994 102.18 20.4358 100.516 20.4358 98.464C20.4358 96.4119 22.0994 94.7484 24.1515 94.7484H94.7482C96.8003 94.7484 98.4638 96.4119 98.4638 98.464C98.4638 100.516 96.8003 102.18 94.7482 102.18H87.317C86.2909 102.18 85.4592 103.011 85.4592 104.037C85.4592 105.063 86.2909 105.895 87.317 105.895H94.7482C98.8524 105.895 102.179 102.568 102.179 98.464C102.179 94.3598 98.8524 91.0328 94.7482 91.0328H24.1515Z" fill="#404040"/>
<path d="M19.8277 59.9332C20.97 60.9716 21.9067 61.3078 22.6652 61.3078C23.4237 61.3078 24.3605 60.9716 25.5027 59.9332C27.0852 58.4945 28.8733 57.5922 30.8396 57.5922C32.8059 57.5922 34.5939 58.4945 36.1765 59.9332C37.3187 60.9716 38.2555 61.3078 39.0139 61.3078C39.7724 61.3078 40.7092 60.9716 41.8514 59.9332C43.434 58.4945 45.222 57.5922 47.1883 57.5922C49.1546 57.5922 50.9426 58.4945 52.5252 59.9332C53.6674 60.9716 54.6042 61.3078 55.3627 61.3078C56.1211 61.3078 57.0579 60.9716 58.2001 59.9332C59.7827 58.4945 61.5707 57.5922 63.537 57.5922C65.5033 57.5922 67.2914 58.4945 68.8739 59.9332C70.0161 60.9716 70.9529 61.3078 71.7114 61.3078C72.4698 61.3078 73.4066 60.9716 74.5489 59.9332C76.1314 58.4945 77.9194 57.5922 79.8857 57.5922C81.8521 57.5922 83.6401 58.4945 85.2226 59.9332C86.3649 60.9716 87.3016 61.3078 88.0601 61.3078C88.8186 61.3078 89.7553 60.9716 90.8976 59.9332C92.4801 58.4945 94.2681 57.5922 96.2345 57.5922C98.2008 57.5922 99.9888 58.4945 101.571 59.9332C102.331 60.6233 102.386 61.7983 101.696 62.5575C101.006 63.3167 99.8312 63.3727 99.0719 62.6825C97.9297 61.6441 96.9929 61.3078 96.2345 61.3078C95.476 61.3078 94.5392 61.6441 93.397 62.6825C91.8144 64.1212 90.0264 65.0234 88.0601 65.0234C86.0938 65.0234 84.3058 64.1212 82.7232 62.6825C81.581 61.6441 80.6442 61.3078 79.8857 61.3078C79.1273 61.3078 78.1905 61.6441 77.0483 62.6825C75.4657 64.1212 73.6777 65.0234 71.7114 65.0234C69.7451 65.0234 67.957 64.1212 66.3745 62.6825C65.2323 61.6441 64.2955 61.3078 63.537 61.3078C62.7786 61.3078 61.8418 61.6441 60.6995 62.6825C59.117 64.1212 57.329 65.0234 55.3627 65.0234C53.3963 65.0234 51.6083 64.1212 50.0258 62.6825C48.8835 61.6441 47.9468 61.3078 47.1883 61.3078C46.4298 61.3078 45.4931 61.6441 44.3508 62.6825C42.7683 64.1212 40.9803 65.0234 39.0139 65.0234C37.0476 65.0234 35.2596 64.1212 33.6771 62.6825C32.5348 61.6441 31.598 61.3078 30.8396 61.3078C30.0811 61.3078 29.1443 61.6441 28.0021 62.6825C26.4196 64.1212 24.6315 65.0234 22.6652 65.0234C20.6989 65.0234 18.9109 64.1212 17.3283 62.6825C16.5691 61.9923 16.5132 60.8173 17.2034 60.0581C17.8936 59.2989 19.0685 59.243 19.8277 59.9332Z" fill="#404040"/>
<path d="M24.1515 74.3125C24.1515 73.2865 24.9832 72.4547 26.0093 72.4547H96.606C97.6321 72.4547 98.4638 71.6229 98.4638 70.5969C98.4638 69.5708 97.6321 68.7391 96.606 68.7391H26.0093C22.9312 68.7391 20.4358 71.2344 20.4358 74.3125C20.4358 77.3906 22.9312 79.8859 26.0093 79.8859H92.8904C93.9164 79.8859 94.7482 80.7177 94.7482 81.7437C94.7482 82.7698 93.9164 83.6015 92.8904 83.6015H22.2937C21.2676 83.6015 20.4358 84.4333 20.4358 85.4593C20.4358 86.4854 21.2676 87.3172 22.2937 87.3172H92.8904C95.9685 87.3172 98.4638 84.8218 98.4638 81.7437C98.4638 78.6656 95.9685 76.1703 92.8904 76.1703H26.0093C24.9832 76.1703 24.1515 75.3385 24.1515 74.3125Z" fill="#404040"/>
<path d="M45.901 34.0112C45.1755 33.2857 45.1755 32.1094 45.901 31.3839L48.5284 28.7566C49.2539 28.031 50.4302 28.031 51.1557 28.7566C51.8812 29.4821 51.8812 30.6584 51.1557 31.3839L48.5284 34.0112C47.8028 34.7368 46.6265 34.7368 45.901 34.0112Z" stroke="white" stroke-width="7.43124" mask="url(#path-1-inside-1_124_12)"/>
<path d="M36.2404 39.9826C35.5149 40.7081 35.5149 41.8844 36.2404 42.61C36.9659 43.3355 38.1422 43.3355 38.8677 42.61L41.4951 39.9826C42.2206 39.2571 42.2206 38.0808 41.4951 37.3553C40.7696 36.6298 39.5933 36.6298 38.8677 37.3553L36.2404 39.9826Z" stroke="white" stroke-width="7.43124" mask="url(#path-1-inside-1_124_12)"/>
<path d="M47.3872 43.6982C46.6617 44.4238 46.6617 45.6001 47.3872 46.3256C48.1128 47.0511 49.2891 47.0511 50.0146 46.3256L52.6419 43.6982C53.3674 42.9727 53.3674 41.7964 52.6419 41.0709C51.9164 40.3454 50.7401 40.3454 50.0146 41.0709L47.3872 43.6982Z" stroke="white" stroke-width="7.43124" mask="url(#path-1-inside-1_124_12)"/>
<path d="M58.5341 32.5514C57.8086 33.2769 57.8086 34.4532 58.5341 35.1787C59.2596 35.9042 60.4359 35.9042 61.1614 35.1787L63.7888 32.5514C64.5143 31.8259 64.5143 30.6496 63.7888 29.924C63.0633 29.1985 61.887 29.1985 61.1614 29.924L58.5341 32.5514Z" stroke="white" stroke-width="7.43124" mask="url(#path-1-inside-1_124_12)"/>
<path d="M69.681 38.8943C68.9554 38.1688 68.9554 36.9925 69.681 36.267L72.3083 33.6397C73.0338 32.9141 74.2101 32.9141 74.9356 33.6397C75.6612 34.3652 75.6612 35.5415 74.9356 36.267L72.3083 38.8943C71.5828 39.6199 70.4065 39.6199 69.681 38.8943Z" stroke="white" stroke-width="7.43124" mask="url(#path-1-inside-1_124_12)"/>
<path d="M77.1122 43.6982C76.3867 44.4238 76.3867 45.6001 77.1122 46.3256C77.8377 47.0511 79.014 47.0511 79.7395 46.3256L82.3669 43.6982C83.0924 42.9727 83.0924 41.7964 82.3669 41.0709C81.6414 40.3454 80.4651 40.3454 79.7395 41.0709L77.1122 43.6982Z" stroke="white" stroke-width="7.43124" mask="url(#path-1-inside-1_124_12)"/>
<path d="M60.7635 47.4403C60.038 46.7148 60.038 45.5385 60.7635 44.8129L63.3908 42.1856C64.1164 41.4601 65.2927 41.4601 66.0182 42.1856C66.7437 42.9111 66.7437 44.0874 66.0182 44.8129L63.3908 47.4403C62.6653 48.1658 61.489 48.1658 60.7635 47.4403Z" stroke="white" stroke-width="7.43124" mask="url(#path-1-inside-1_124_12)"/>
<path fill-rule="evenodd" clip-rule="evenodd" d="M24.9406 54.1704C20.8373 54.0853 17.4895 50.6294 18.6727 46.6995C19.2297 44.8496 19.9834 43.0387 20.9282 41.2872C23.0932 37.2741 26.2196 33.6517 30.1288 30.6269C34.0381 27.6021 38.6537 25.2341 43.7121 23.6581C48.7704 22.0822 54.1726 21.3291 59.61 21.4419C65.0474 21.5548 70.4137 22.5313 75.4023 24.3157C80.391 26.1001 84.9044 28.6575 88.6848 31.8418C92.4652 35.0262 95.4386 38.7751 97.4353 42.8746C97.7524 43.5256 98.0438 44.1834 98.3094 44.8469C100.597 50.5624 95.3321 55.6309 89.1772 55.5032L24.9406 54.1704ZM22.2306 47.7707C22.7136 46.1664 23.3698 44.5872 24.1984 43.0514C26.0968 39.5323 28.869 36.2997 32.4026 33.5655C35.9373 30.8306 40.151 28.6594 44.8173 27.2056C49.483 25.752 54.4853 25.052 59.5329 25.1568C64.5805 25.2615 69.5495 26.1683 74.1509 27.8142C78.7529 29.4603 82.8729 31.8044 86.2911 34.6836C89.7083 37.562 92.344 40.9068 94.0948 44.5016C94.3729 45.0725 94.6279 45.6482 94.8598 46.2276C95.4166 47.6187 95.1118 48.8271 94.1687 49.8571C93.1371 50.9839 91.3329 51.8315 89.2542 51.7884L25.0177 50.4556C23.9656 50.4337 23.1012 49.9761 22.6136 49.4221C22.1761 48.925 22.0441 48.3901 22.2306 47.7707Z" stroke="white" stroke-width="7.43124" mask="url(#path-1-inside-1_124_12)"/>
<path d="M24.1515 91.0328C20.0473 91.0328 16.7202 94.3598 16.7202 98.464C16.7202 102.568 20.0473 105.895 24.1515 105.895H78.0279C79.054 105.895 79.8857 105.063 79.8857 104.037C79.8857 103.011 79.054 102.18 78.0279 102.18H24.1515C22.0994 102.18 20.4358 100.516 20.4358 98.464C20.4358 96.4119 22.0994 94.7484 24.1515 94.7484H94.7482C96.8003 94.7484 98.4638 96.4119 98.4638 98.464C98.4638 100.516 96.8003 102.18 94.7482 102.18H87.317C86.2909 102.18 85.4592 103.011 85.4592 104.037C85.4592 105.063 86.2909 105.895 87.317 105.895H94.7482C98.8524 105.895 102.179 102.568 102.179 98.464C102.179 94.3598 98.8524 91.0328 94.7482 91.0328H24.1515Z" stroke="white" stroke-width="7.43124" mask="url(#path-1-inside-1_124_12)"/>
<path d="M19.8277 59.9332C20.97 60.9716 21.9067 61.3078 22.6652 61.3078C23.4237 61.3078 24.3605 60.9716 25.5027 59.9332C27.0852 58.4945 28.8733 57.5922 30.8396 57.5922C32.8059 57.5922 34.5939 58.4945 36.1765 59.9332C37.3187 60.9716 38.2555 61.3078 39.0139 61.3078C39.7724 61.3078 40.7092 60.9716 41.8514 59.9332C43.434 58.4945 45.222 57.5922 47.1883 57.5922C49.1546 57.5922 50.9426 58.4945 52.5252 59.9332C53.6674 60.9716 54.6042 61.3078 55.3627 61.3078C56.1211 61.3078 57.0579 60.9716 58.2001 59.9332C59.7827 58.4945 61.5707 57.5922 63.537 57.5922C65.5033 57.5922 67.2914 58.4945 68.8739 59.9332C70.0161 60.9716 70.9529 61.3078 71.7114 61.3078C72.4698 61.3078 73.4066 60.9716 74.5489 59.9332C76.1314 58.4945 77.9194 57.5922 79.8857 57.5922C81.8521 57.5922 83.6401 58.4945 85.2226 59.9332C86.3649 60.9716 87.3016 61.3078 88.0601 61.3078C88.8186 61.3078 89.7553 60.9716 90.8976 59.9332C92.4801 58.4945 94.2681 57.5922 96.2345 57.5922C98.2008 57.5922 99.9888 58.4945 101.571 59.9332C102.331 60.6233 102.386 61.7983 101.696 62.5575C101.006 63.3167 99.8312 63.3727 99.0719 62.6825C97.9297 61.6441 96.9929 61.3078 96.2345 61.3078C95.476 61.3078 94.5392 61.6441 93.397 62.6825C91.8144 64.1212 90.0264 65.0234 88.0601 65.0234C86.0938 65.0234 84.3058 64.1212 82.7232 62.6825C81.581 61.6441 80.6442 61.3078 79.8857 61.3078C79.1273 61.3078 78.1905 61.6441 77.0483 62.6825C75.4657 64.1212 73.6777 65.0234 71.7114 65.0234C69.7451 65.0234 67.957 64.1212 66.3745 62.6825C65.2323 61.6441 64.2955 61.3078 63.537 61.3078C62.7786 61.3078 61.8418 61.6441 60.6995 62.6825C59.117 64.1212 57.329 65.0234 55.3627 65.0234C53.3963 65.0234 51.6083 64.1212 50.0258 62.6825C48.8835 61.6441 47.9468 61.3078 47.1883 61.3078C46.4298 61.3078 45.4931 61.6441 44.3508 62.6825C42.7683 64.1212 40.9803 65.0234 39.0139 65.0234C37.0476 65.0234 35.2596 64.1212 33.6771 62.6825C32.5348 61.6441 31.598 61.3078 30.8396 61.3078C30.0811 61.3078 29.1443 61.6441 28.0021 62.6825C26.4196 64.1212 24.6315 65.0234 22.6652 65.0234C20.6989 65.0234 18.9109 64.1212 17.3283 62.6825C16.5691 61.9923 16.5132 60.8173 17.2034 60.0581C17.8936 59.2989 19.0685 59.243 19.8277 59.9332Z" stroke="white" stroke-width="7.43124" mask="url(#path-1-inside-1_124_12)"/>
<path d="M24.1515 74.3125C24.1515 73.2865 24.9832 72.4547 26.0093 72.4547H96.606C97.6321 72.4547 98.4638 71.6229 98.4638 70.5969C98.4638 69.5708 97.6321 68.7391 96.606 68.7391H26.0093C22.9312 68.7391 20.4358 71.2344 20.4358 74.3125C20.4358 77.3906 22.9312 79.8859 26.0093 79.8859H92.8904C93.9164 79.8859 94.7482 80.7177 94.7482 81.7437C94.7482 82.7698 93.9164 83.6015 92.8904 83.6015H22.2937C21.2676 83.6015 20.4358 84.4333 20.4358 85.4593C20.4358 86.4854 21.2676 87.3172 22.2937 87.3172H92.8904C95.9685 87.3172 98.4638 84.8218 98.4638 81.7437C98.4638 78.6656 95.9685 76.1703 92.8904 76.1703H26.0093C24.9832 76.1703 24.1515 75.3385 24.1515 74.3125Z" stroke="white" stroke-width="7.43124" mask="url(#path-1-inside-1_124_12)"/>
</svg>
