<svg width="46" height="42" viewBox="0 0 46 42" fill="none" xmlns="http://www.w3.org/2000/svg">
<path d="M42.906 30.5454H2.52388C1.85451 30.5454 1.21255 30.7466 0.739229 31.1046C0.265909 31.4626 0 31.9482 0 32.4545V35.6809C0.00665744 37.3553 0.888952 38.9596 2.4542 40.1436C4.01945 41.3276 6.14047 41.995 8.35405 42H37.0758C39.2894 41.995 41.4104 41.3276 42.9757 40.1436C44.5409 38.9596 45.4232 37.3553 45.4299 35.6809V32.4545C45.4299 31.9482 45.164 31.4626 44.6907 31.1046C44.2173 30.7466 43.5754 30.5454 42.906 30.5454Z" fill="#FDA409"/>
<path d="M2.52388 17.1818H42.906C43.5754 17.1818 44.2173 16.9807 44.6907 16.6227C45.164 16.2646 45.4299 15.779 45.4299 15.2727C45.4299 6.85364 35.3344 0 22.7149 0C10.0955 0 0 6.85364 0 15.2727C0 15.779 0.265909 16.2646 0.739229 16.6227C1.21255 16.9807 1.85451 17.1818 2.52388 17.1818Z" fill="#FDA409"/>
<path d="M20.1911 9.54545H17.6672C16.9978 9.54545 16.3559 9.34431 15.8825 8.98629C15.4092 8.62826 15.1433 8.14268 15.1433 7.63636C15.1433 7.13003 15.4092 6.64445 15.8825 6.28642C16.3559 5.9284 16.9978 5.72726 17.6672 5.72726H20.1911C20.8605 5.72726 21.5024 5.9284 21.9757 6.28642C22.4491 6.64445 22.715 7.13003 22.715 7.63636C22.715 8.14268 22.4491 8.62826 21.9757 8.98629C21.5024 9.34431 20.8605 9.54545 20.1911 9.54545Z" fill="#FFE376"/>
<path d="M30.2866 11.4545H27.7627C27.0933 11.4545 26.4514 11.2534 25.9781 10.8954C25.5047 10.5374 25.2388 10.0518 25.2388 9.54544C25.2388 9.03912 25.5047 8.55354 25.9781 8.19551C26.4514 7.83749 27.0933 7.63635 27.7627 7.63635H30.2866C30.956 7.63635 31.5979 7.83749 32.0713 8.19551C32.5446 8.55354 32.8105 9.03912 32.8105 9.54544C32.8105 10.0518 32.5446 10.5374 32.0713 10.8954C31.5979 11.2534 30.956 11.4545 30.2866 11.4545Z" fill="#FFE376"/>
<path d="M42.906 28.6364H2.52388C1.85451 28.6364 1.21255 28.4352 0.739229 28.0772C0.265909 27.7192 0 27.2336 0 26.7273C0 26.2209 0.265909 25.7354 0.739229 25.3773C1.21255 25.0193 1.85451 24.8182 2.52388 24.8182H42.906C43.5754 24.8182 44.2173 25.0193 44.6907 25.3773C45.164 25.7354 45.4299 26.2209 45.4299 26.7273C45.4299 27.2336 45.164 27.7192 44.6907 28.0772C44.2173 28.4352 43.5754 28.6364 42.906 28.6364Z" fill="#934D2B"/>
<path d="M42.906 22.9091H2.52388C1.85451 22.9091 1.21255 22.708 0.739229 22.3499C0.265909 21.9919 0 21.5063 0 21C0 20.4937 0.265909 20.0081 0.739229 19.6501C1.21255 19.292 1.85451 19.0909 2.52388 19.0909H42.906C43.5754 19.0909 44.2173 19.292 44.6907 19.6501C45.164 20.0081 45.4299 20.4937 45.4299 21C45.4299 21.5063 45.164 21.9919 44.6907 22.3499C44.2173 22.708 43.5754 22.9091 42.906 22.9091Z" fill="#934D2B"/>
</svg>
