<svg width="52" height="43" viewBox="0 0 52 43" fill="none" xmlns="http://www.w3.org/2000/svg">
<path d="M41.8408 8.19051C42.1079 7.53367 42.235 6.8397 42.216 6.14289C42.216 4.5137 41.4748 2.95124 40.1555 1.79923C38.8362 0.647223 37.0468 3.05176e-05 35.1811 3.05176e-05C33.4488 0.00344509 31.7788 0.564852 30.4911 1.5767C29.1714 0.624598 27.5131 0.103765 25.8012 0.103765C24.0893 0.103765 22.431 0.624598 21.1113 1.5767C20.1 0.786843 18.8486 0.269214 17.5081 0.0861864C16.1676 -0.0968414 14.795 0.0625424 13.5558 0.545131C12.3167 1.02772 11.2638 1.81292 10.524 2.80611C9.78423 3.79931 9.38918 4.95811 9.38643 6.14289C9.38311 6.8036 9.50189 7.46045 9.73818 8.08813C3.32545 13.9508 -0.17268 21.7896 0.00656368 29.8953C0.00656368 37.2462 11.3328 43 25.8012 43C40.2697 43 51.5959 37.2462 51.5959 29.8953C51.7378 21.822 48.2333 14.0246 41.8408 8.19051Z" fill="#FFD89E"/>
<path d="M25.8013 16.3809C25.1793 16.3809 24.5829 16.1652 24.1431 15.7812C23.7034 15.3972 23.4563 14.8764 23.4563 14.3333V10.2381C23.4563 9.69502 23.7034 9.1742 24.1431 8.79019C24.5829 8.40619 25.1793 8.19046 25.8013 8.19046C26.4232 8.19046 27.0196 8.40619 27.4594 8.79019C27.8992 9.1742 28.1462 9.69502 28.1462 10.2381V14.3333C28.1462 14.8764 27.8992 15.3972 27.4594 15.7812C27.0196 16.1652 26.4232 16.3809 25.8013 16.3809Z" fill="#FFCB7C"/>
<path d="M18.7663 16.3809C18.1444 16.3809 17.5479 16.1652 17.1082 15.7812C16.6684 15.3972 16.4213 14.8764 16.4213 14.3333V10.2381C16.4213 9.69502 16.6684 9.1742 17.1082 8.79019C17.5479 8.40619 18.1444 8.19046 18.7663 8.19046C19.3882 8.19046 19.9847 8.40619 20.4244 8.79019C20.8642 9.1742 21.1113 9.69502 21.1113 10.2381V14.3333C21.1113 14.8764 20.8642 15.3972 20.4244 15.7812C19.9847 16.1652 19.3882 16.3809 18.7663 16.3809Z" fill="#FFCB7C"/>
<path d="M32.8361 16.3809C32.2142 16.3809 31.6177 16.1652 31.178 15.7812C30.7382 15.3972 30.4911 14.8764 30.4911 14.3333V10.2381C30.4911 9.69502 30.7382 9.1742 31.178 8.79019C31.6177 8.40619 32.2142 8.19046 32.8361 8.19046C33.458 8.19046 34.0545 8.40619 34.4943 8.79019C34.934 9.1742 35.1811 9.69502 35.1811 10.2381V14.3333C35.1811 14.8764 34.934 15.3972 34.4943 15.7812C34.0545 16.1652 33.458 16.3809 32.8361 16.3809Z" fill="#FFCB7C"/>
</svg>
