<svg width="45" height="44" viewBox="0 0 45 44" fill="none" xmlns="http://www.w3.org/2000/svg">
<path d="M34.7599 3.38461H28.6249V1.69231C28.6249 1.24348 28.4094 0.813034 28.0259 0.495665C27.6424 0.178296 27.1222 0 26.5799 0H18.3998C17.8575 0 17.3373 0.178296 16.9538 0.495665C16.5703 0.813034 16.3548 1.24348 16.3548 1.69231V3.38461H10.2198C9.67744 3.38461 9.15729 3.56291 8.77377 3.88028C8.39026 4.19765 8.1748 4.62809 8.1748 5.07692V11.8462C8.1748 12.295 8.39026 12.7254 8.77377 13.0428C9.15729 13.3602 9.67744 13.5385 10.2198 13.5385H34.7599C35.3023 13.5385 35.8224 13.3602 36.2059 13.0428C36.5894 12.7254 36.8049 12.295 36.8049 11.8462V5.07692C36.8049 4.62809 36.5894 4.19765 36.2059 3.88028C35.8224 3.56291 35.3023 3.38461 34.7599 3.38461Z" fill="#FEDA00"/>
<path d="M41.8151 35.5384L44.9848 12.0323C45.0198 11.7961 44.9941 11.5564 44.9096 11.329C44.825 11.1015 44.6834 10.8914 44.494 10.7123C44.2983 10.5327 44.0582 10.3899 43.7901 10.2936C43.522 10.1972 43.2321 10.1496 42.9398 10.1538H2.03971C1.7509 10.152 1.4649 10.2008 1.20054 10.2971C0.936178 10.3933 0.699455 10.5348 0.505955 10.7123C0.316592 10.8914 0.175003 11.1015 0.090432 11.329C0.00586118 11.5564 -0.0197895 11.7961 0.0151535 12.0323L3.16446 35.5384H41.8151Z" fill="#FF4B57"/>
<path d="M3.61432 38.923L4.08467 42.4938C4.14027 42.9096 4.38004 43.2937 4.75769 43.5718C5.13535 43.85 5.62412 44.0025 6.12968 44H38.8498C39.3553 44.0025 39.8441 43.85 40.2218 43.5718C40.5994 43.2937 40.8392 42.9096 40.8948 42.4938L41.3651 38.923H3.61432Z" fill="#FF4B57"/>
<path d="M22.4898 32.1538C27.0075 32.1538 30.6698 29.1231 30.6698 25.3846C30.6698 21.646 27.0075 18.6154 22.4898 18.6154C17.9721 18.6154 14.3098 21.646 14.3098 25.3846C14.3098 29.1231 17.9721 32.1538 22.4898 32.1538Z" fill="white"/>
</svg>
