<svg width="119" height="119" viewBox="0 0 119 119" fill="none" xmlns="http://www.w3.org/2000/svg">
<path fill-rule="evenodd" clip-rule="evenodd" d="M46.4449 22.2936C46.4449 19.2155 48.9402 16.7202 52.0184 16.7202H55.734C57.1614 16.7202 58.4636 17.2568 59.4496 18.1394C60.4356 17.2568 61.7378 16.7202 63.1652 16.7202H66.8808C69.959 16.7202 72.4543 19.2155 72.4543 22.2936V24.4686C73.0353 24.2632 73.6607 24.1515 74.3121 24.1515H78.0277C81.1058 24.1515 83.6011 26.6468 83.6011 29.7249V42.7296H88.8099C92.0935 42.7296 94.6655 45.554 94.359 48.8232L89.1664 104.211C89.0707 105.232 88.1649 105.983 87.1433 105.887C86.1218 105.791 85.3713 104.885 85.467 103.864L90.6596 48.4764C90.7618 47.3866 89.9045 46.4452 88.8099 46.4452H83.4684C83.1825 47.8974 82.4474 49.2495 81.389 50.4495C80.0187 52.0032 78.0943 53.3238 75.812 54.3882C73.5205 55.4569 70.8476 56.2772 67.9589 56.8202C65.067 57.3638 61.9897 57.6237 58.9033 57.589C55.8171 57.5542 52.7661 57.2254 49.9256 56.6161C47.0888 56.0077 44.489 55.1254 42.2909 53.9989C40.1026 52.8774 38.2843 51.4988 37.0452 49.8853C36.2319 48.8261 35.6717 47.6663 35.4308 46.4452H30.0893C28.9948 46.4452 28.1374 47.3866 28.2396 48.4764L33.1163 100.495C33.2058 101.45 34.0072 102.179 34.966 102.179H78.0277C79.0537 102.179 79.8855 103.011 79.8855 104.037C79.8855 105.063 79.0537 105.895 78.0277 105.895H34.966C32.0895 105.895 29.6854 103.706 29.4169 100.842L24.5402 48.8232C24.2337 45.554 26.8057 42.7296 30.0893 42.7296H35.2981V29.7249C35.2981 26.6468 37.7934 24.1515 40.8715 24.1515H44.5871C45.2385 24.1515 45.8638 24.2632 46.4449 24.4686V22.2936ZM39.0137 44.2822C39.0398 44.4398 39.0459 44.6034 39.0295 44.77C38.944 45.635 39.2016 46.5928 39.9921 47.6222C40.7993 48.6733 42.1222 49.7372 43.9856 50.6922C44.7378 51.0778 45.5603 51.4363 46.4449 51.7634V29.7249C46.4449 28.6988 45.6132 27.8671 44.5871 27.8671H40.8715C39.8455 27.8671 39.0137 28.6988 39.0137 29.7249V44.2822ZM49.9795 52.8196C50.2185 52.8762 50.4603 52.9307 50.7048 52.9831C52.8771 53.4491 55.2063 53.7386 57.5918 53.8379V22.2936C57.5918 21.2676 56.76 20.4358 55.734 20.4358H52.0184C50.9923 20.4358 50.1606 21.2676 50.1606 22.2936V52.0186C50.1606 52.3054 50.0955 52.5771 49.9795 52.8196ZM61.3074 53.8379C63.3541 53.7527 65.364 53.5273 67.2725 53.1685C67.7713 53.0748 68.2603 52.9724 68.7386 52.862V22.2936C68.7386 21.2676 67.9069 20.4358 66.8808 20.4358H63.1652C62.1392 20.4358 61.3074 21.2676 61.3074 22.2936V53.8379ZM72.4543 51.7634C73.0815 51.5315 73.6783 51.2835 74.2416 51.0208C76.2114 50.1021 77.6658 49.0537 78.6024 47.9917C79.5245 46.9461 79.8829 45.9652 79.8855 45.0984V29.7249C79.8855 28.6988 79.0537 27.8671 78.0277 27.8671H74.3121C73.286 27.8671 72.4543 28.6988 72.4543 29.7249V51.7634Z" fill="white"/>
<path d="M67.3158 82.3277C69.0608 78.613 67.4641 74.1871 63.7494 72.442C60.0347 70.697 55.6087 72.2937 53.8637 76.0084C52.1187 79.7231 53.7154 84.1491 57.4301 85.8941C58.3588 86.3304 58.758 87.4369 58.3217 88.3656C57.8854 89.2942 56.779 89.6934 55.8503 89.2572C50.2782 86.6396 47.8831 80.0007 50.5007 74.4286C53.1182 68.8566 59.7572 66.4615 65.3292 69.079C70.9013 71.6965 73.2964 78.3355 70.6788 83.9076C69.4007 86.6285 67.16 88.5937 64.558 89.5847C63.5991 89.9499 62.5258 89.4686 62.1606 88.5097C61.7954 87.5509 62.2767 86.4776 63.2356 86.1124C64.9741 85.4503 66.4632 84.1428 67.3158 82.3277Z" fill="white"/>
</svg>
