<svg width="45" height="45" viewBox="0 0 45 45" fill="none" xmlns="http://www.w3.org/2000/svg">
<path d="M28.376 5.80888C28.3747 4.25099 27.7547 2.7574 26.6524 1.65649C25.5315 0.592917 24.0452 0 22.5 0C20.9548 0 19.4685 0.592917 18.3476 1.65649L1.71846 18.2856C0.618075 19.3874 0 20.8809 0 22.438C0 23.9952 0.618075 25.4887 1.71846 26.5904C2.26437 27.1382 2.91304 27.5729 3.62728 27.8694C4.34152 28.166 5.10728 28.3187 5.88065 28.3187C6.65401 28.3187 7.41977 28.166 8.13402 27.8694C8.84826 27.5729 9.49693 27.1382 10.0428 26.5904L26.6524 9.98086C27.2005 9.43341 27.635 8.78298 27.9308 8.06699C28.2266 7.35099 28.3779 6.58357 28.376 5.80888Z" fill="#FFD554"/>
<path d="M43.2815 18.2856C42.1574 17.2207 40.6678 16.6272 39.1193 16.6272C37.5709 16.6272 36.0813 17.2207 34.9572 18.2856L18.3476 34.8952C17.7998 35.4411 17.3651 36.0897 17.0686 36.804C16.772 37.5182 16.6193 38.284 16.6193 39.0574C16.6193 39.8307 16.772 40.5965 17.0686 41.3107C17.3651 42.025 17.7998 42.6736 18.3476 43.2195C19.4493 44.3199 20.9428 44.938 22.5 44.938C24.0571 44.938 25.5506 44.3199 26.6524 43.2195L43.2815 26.5904C44.3819 25.4886 45 23.9951 45 22.438C45 20.8808 44.3819 19.3874 43.2815 18.2856Z" fill="#FFD554"/>
<path d="M39.1292 5.80884C38.2195 4.89682 37.1388 4.17323 35.949 3.67952C34.7592 3.18581 33.4837 2.93167 32.1955 2.93167C30.9073 2.93167 29.6318 3.18581 28.442 3.67952C27.2522 4.17323 26.1715 4.89682 25.2618 5.80884L5.87091 25.1997C4.03197 27.0387 2.99887 29.5328 2.99887 32.1334C2.99887 34.7341 4.03197 37.2282 5.87091 39.0671C7.70984 40.9061 10.204 41.9392 12.8046 41.9392C15.4053 41.9392 17.8994 40.9061 19.7383 39.0671L39.1292 19.6763C40.0412 18.7665 40.7648 17.6858 41.2585 16.496C41.7522 15.3062 42.0064 14.0307 42.0064 12.7425C42.0064 11.4544 41.7522 10.1789 41.2585 8.98907C40.7648 7.79927 40.0412 6.71856 39.1292 5.80884Z" fill="#E05C22"/>
<path d="M11.9819 33.2695C11.7242 33.271 11.4686 33.2215 11.23 33.1241C10.9913 33.0266 10.7743 32.883 10.5913 32.7014C10.4077 32.5194 10.262 32.3027 10.1625 32.064C10.0631 31.8254 10.0119 31.5694 10.0119 31.3108C10.0119 31.0522 10.0631 30.7962 10.1625 30.5575C10.262 30.3188 10.4077 30.1022 10.5913 29.9201C11.6916 28.8798 13.1511 28.3044 14.6653 28.314C15.4488 28.314 15.7426 28.314 16.1931 27.7656C16.6436 27.2172 16.6828 27.0213 16.7415 26.2378C16.777 24.7637 17.3805 23.3603 18.426 22.3205C19.4611 21.2681 20.8674 20.6633 22.3433 20.636C23.1268 20.636 23.4206 20.636 23.8907 20.0876C24.0886 19.8847 24.2401 19.6413 24.3348 19.3741C24.4295 19.107 24.4651 18.8225 24.4391 18.5402C24.4746 17.0661 25.0781 15.6627 26.1236 14.6229C27.1693 13.5835 28.5676 12.9753 30.0409 12.9188C30.8244 12.9188 31.1182 12.9188 31.5687 12.3704C31.9375 12.0016 32.4377 11.7944 32.9593 11.7944C33.4809 11.7944 33.9812 12.0016 34.35 12.3704C34.7188 12.7392 34.926 13.2395 34.926 13.7611C34.926 14.2827 34.7188 14.7829 34.35 15.1517C33.2348 16.107 31.8023 16.6101 30.3347 16.562C29.5512 16.562 29.2574 16.562 28.8069 17.1104C28.3565 17.6588 28.3173 17.8743 28.2389 18.6577C28.2346 20.1515 27.6499 21.5852 26.6083 22.656C25.5667 23.7268 24.1498 24.3509 22.6567 24.3967C22.3745 24.3707 22.09 24.4063 21.8228 24.5009C21.5557 24.5956 21.3122 24.7472 21.1094 24.9451C20.6589 25.4152 20.6393 25.6894 20.5609 26.4729C20.5714 27.9864 19.9815 29.4423 18.9204 30.5217C17.8594 31.6011 16.4138 32.2158 14.9004 32.2314C14.1169 32.2314 13.8231 32.2314 13.3726 32.7798C12.9905 33.1179 12.4916 33.2936 11.9819 33.2695Z" fill="#F3ED86"/>
</svg>
