<svg width="120" height="120" viewBox="0 0 120 120" fill="none" xmlns="http://www.w3.org/2000/svg">
<path fill-rule="evenodd" clip-rule="evenodd" d="M19.8945 93.3341C18.4435 97.6837 22.5727 101.827 26.9273 100.391L89.2103 79.8485C90.1847 79.5271 90.714 78.4767 90.3927 77.5023C90.0713 76.5279 89.0208 75.9985 88.0464 76.3199L25.7634 96.8622C24.3119 97.341 22.9355 95.9598 23.4192 94.51L45.7402 27.6025C46.176 26.2963 47.8318 25.9015 48.8101 26.8706L94.7161 72.3471C96.9028 74.5134 100.432 74.4968 102.598 72.3101L107.174 67.6907C109.34 65.5039 109.324 61.975 107.137 59.8087L58.4419 11.5691C56.9076 10.0492 54.4316 10.0608 52.9117 11.5951L47.8189 16.736C47.0968 17.4649 47.1023 18.6412 47.8312 19.3633C48.5602 20.0854 49.7365 20.0799 50.4586 19.3509L55.5513 14.2101C55.6271 14.1336 55.7505 14.133 55.8269 14.2088L104.522 62.4484C105.251 63.1705 105.257 64.3468 104.535 65.0757L99.9583 69.6951C99.2363 70.424 98.06 70.4296 97.331 69.7074L51.425 24.231C48.4902 21.3236 43.523 22.5079 42.2156 26.4267L19.8945 93.3341ZM41.5161 73.254C42.9603 71.7962 45.3129 71.7851 46.7708 73.2293C48.2286 74.6735 48.2397 77.0261 46.7955 78.4839C45.3513 79.9418 42.9987 79.9528 41.5408 78.5086C40.083 77.0644 40.0719 74.7119 41.5161 73.254ZM65.1249 65.2609C66.5691 63.8031 68.9217 63.792 70.3795 65.2362C71.8374 66.6804 71.8484 69.033 70.4042 70.4909C68.96 71.9487 66.6074 71.9598 65.1496 70.5156C63.6917 69.0714 63.6807 66.7188 65.1249 65.2609ZM49.2869 49.5712C50.7311 48.1133 53.0837 48.1023 54.5415 49.5465C55.9994 50.9907 56.0104 53.3433 54.5662 54.8011C53.122 56.2589 50.7695 56.27 49.3116 54.8258C47.8538 53.3816 47.8427 51.029 49.2869 49.5712ZM46.6473 46.9562C49.5357 44.0405 54.2408 44.0184 57.1565 46.9068C60.0722 49.7952 60.0943 54.5004 57.2059 57.4161C54.3175 60.3317 49.6123 60.3539 46.6967 57.4655C43.781 54.5771 43.7589 49.8719 46.6473 46.9562ZM72.9945 62.5966C70.0788 59.7082 65.3736 59.7303 62.4852 62.646C59.5968 65.5617 59.6189 70.2668 62.5346 73.1552C65.4503 76.0436 70.1555 76.0215 73.0439 73.1058C75.9323 70.1901 75.9101 65.485 72.9945 62.5966ZM49.3857 70.5897C46.47 67.7012 41.7649 67.7234 38.8765 70.6391C35.9881 73.5547 36.0102 78.2599 38.9259 81.1483C41.8416 84.0367 46.5467 84.0146 49.4351 81.0989C52.3235 78.1832 52.3014 73.4781 49.3857 70.5897Z" fill="#2E1207"/>
</svg>
