<svg width="47" height="48" viewBox="0 0 47 48" fill="none" xmlns="http://www.w3.org/2000/svg">
<path d="M5.27759 7.51343C4.98334 7.51513 4.69165 7.45873 4.41924 7.34747C4.14683 7.2362 3.89907 7.07226 3.69015 6.86504L0.537622 3.69015C0.171334 3.26243 -0.0200675 2.71225 0.00166745 2.14954C0.0234023 1.58683 0.256672 1.05305 0.654863 0.654863C1.05305 0.256672 1.58683 0.0234023 2.14954 0.00166745C2.71225 -0.0200675 3.26243 0.171334 3.69015 0.537622L6.86504 3.69015C7.0746 3.898 7.24093 4.14529 7.35444 4.41774C7.46795 4.6902 7.52639 4.98244 7.52639 5.27759C7.52639 5.57275 7.46795 5.86499 7.35444 6.13744C7.24093 6.4099 7.0746 6.65719 6.86504 6.86504C6.65612 7.07226 6.40835 7.2362 6.13594 7.34747C5.86354 7.45873 5.57184 7.51513 5.27759 7.51343Z" fill="#C5C5C5"/>
<path d="M44.8071 47.0431C44.5113 47.0418 44.2187 46.9819 43.9462 46.8668C43.6737 46.7516 43.4267 46.5836 43.2197 46.3723L33.7397 36.8924C33.4923 36.6973 33.2889 36.4521 33.1428 36.1728C32.9968 35.8936 32.9114 35.5867 32.8924 35.2721C32.8733 34.9576 32.9209 34.6426 33.032 34.3478C33.1432 34.0529 33.3155 33.7849 33.5375 33.5613C33.7595 33.3377 34.0263 33.1636 34.3203 33.0503C34.6144 32.937 34.929 32.8872 35.2437 32.904C35.5583 32.9209 35.8659 33.0041 36.1461 33.1481C36.4264 33.2921 36.673 33.4938 36.8699 33.7398L46.3498 43.2198C46.7663 43.6387 47 44.2054 47 44.796C47 45.3867 46.7663 45.9534 46.3498 46.3723C45.9425 46.7882 45.3891 47.0288 44.8071 47.0431Z" fill="#C5C5C5"/>
<path d="M36.8699 24.2375C35.9569 23.3556 34.8666 22.6782 33.6716 22.2503C32.4765 21.8224 31.2041 21.6538 29.9388 21.7557C29.9388 21.5321 29.9388 21.3085 29.9388 21.0849C29.9398 19.9101 29.7092 18.7467 29.2604 17.661C28.8115 16.5753 28.1532 15.5887 27.3229 14.7575C26.1638 13.6262 24.7249 12.8231 23.1536 12.4302C21.5822 12.0374 19.9347 12.0689 18.3796 12.5217C18.8541 10.9685 18.8966 9.31535 18.5027 7.73975C18.1088 6.16416 17.2933 4.72556 16.1437 3.57835C14.4387 1.95184 12.1727 1.0444 9.81631 1.0444C7.45988 1.0444 5.19396 1.95184 3.4889 3.57835C2.18164 4.83555 1.28752 6.46048 0.925145 8.23759C0.56277 10.0147 0.749272 11.86 1.45991 13.5287C2.17055 15.1973 3.37173 16.6105 4.90411 17.5807C6.43648 18.5509 8.22762 19.0322 10.0399 18.9609C10.8961 18.9381 11.7455 18.8028 12.5664 18.5585C12.3078 19.376 12.1722 20.2275 12.1639 21.0849C12.1639 23.4569 13.1062 25.7316 14.7834 27.4088C16.4606 29.086 18.7354 30.0283 21.1073 30.0283C21.3084 30.0392 21.5099 30.0392 21.711 30.0283C21.607 31.5268 21.8822 33.0273 22.5111 34.3915C23.14 35.7556 24.1024 36.9393 25.3094 37.8334C26.5164 38.7275 27.9292 39.3032 29.4173 39.5074C30.9055 39.7116 32.4211 39.5376 33.8243 39.0015C35.2276 38.4655 36.4731 37.5847 37.4462 36.4403C38.4192 35.296 39.0883 33.925 39.3918 32.4539C39.6953 30.9827 39.6233 29.4589 39.1826 28.0229C38.7418 26.5869 37.9465 25.285 36.8699 24.2375Z" fill="#FDA409"/>
</svg>
