<svg width="32" height="32" viewBox="0 0 32 32" fill="none" xmlns="http://www.w3.org/2000/svg">
<path d="M24 21H8C7.73478 21 7.48043 21.1054 7.29289 21.2929C7.10536 21.4804 7 21.7348 7 22V23.69C7.00264 24.5671 7.35222 25.4074 7.97239 26.0276C8.59257 26.6478 9.43295 26.9974 10.31 27H21.69C22.5671 26.9974 23.4074 26.6478 24.0276 26.0276C24.6478 25.4074 24.9974 24.5671 25 23.69V22C25 21.7348 24.8946 21.4804 24.7071 21.2929C24.5196 21.1054 24.2652 21 24 21Z" fill="#FDA409"/>
<path d="M8 14H24C24.2652 14 24.5196 13.8946 24.7071 13.7071C24.8946 13.5196 25 13.2652 25 13C25 8.59 21 5 16 5C11 5 7 8.59 7 13C7 13.2652 7.10536 13.5196 7.29289 13.7071C7.48043 13.8946 7.73478 14 8 14Z" fill="#FDA409"/>
<path d="M15 10H14C13.7348 10 13.4804 9.89464 13.2929 9.70711C13.1054 9.51957 13 9.26522 13 9C13 8.73478 13.1054 8.48043 13.2929 8.29289C13.4804 8.10536 13.7348 8 14 8H15C15.2652 8 15.5196 8.10536 15.7071 8.29289C15.8946 8.48043 16 8.73478 16 9C16 9.26522 15.8946 9.51957 15.7071 9.70711C15.5196 9.89464 15.2652 10 15 10Z" fill="#FFE376"/>
<path d="M19 11H18C17.7348 11 17.4804 10.8946 17.2929 10.7071C17.1054 10.5196 17 10.2652 17 10C17 9.73478 17.1054 9.48043 17.2929 9.29289C17.4804 9.10536 17.7348 9 18 9H19C19.2652 9 19.5196 9.10536 19.7071 9.29289C19.8946 9.48043 20 9.73478 20 10C20 10.2652 19.8946 10.5196 19.7071 10.7071C19.5196 10.8946 19.2652 11 19 11Z" fill="#FFE376"/>
<path d="M24 20H8C7.73478 20 7.48043 19.8946 7.29289 19.7071C7.10536 19.5196 7 19.2652 7 19C7 18.7348 7.10536 18.4804 7.29289 18.2929C7.48043 18.1054 7.73478 18 8 18H24C24.2652 18 24.5196 18.1054 24.7071 18.2929C24.8946 18.4804 25 18.7348 25 19C25 19.2652 24.8946 19.5196 24.7071 19.7071C24.5196 19.8946 24.2652 20 24 20Z" fill="#934D2B"/>
<path d="M24 17H8C7.73478 17 7.48043 16.8946 7.29289 16.7071C7.10536 16.5196 7 16.2652 7 16C7 15.7348 7.10536 15.4804 7.29289 15.2929C7.48043 15.1054 7.73478 15 8 15H24C24.2652 15 24.5196 15.1054 24.7071 15.2929C24.8946 15.4804 25 15.7348 25 16C25 16.2652 24.8946 16.5196 24.7071 16.7071C24.5196 16.8946 24.2652 17 24 17Z" fill="#934D2B"/>
</svg>
